<?xml version="1.0" encoding="utf-8"?>
<!-- Generator: Adobe Illustrator 23.0.4, SVG Export Plug-In . SVG Version: 6.00 Build 0)  -->
<svg version="1.1" id="Page_01" xmlns="http://www.w3.org/2000/svg" xmlns:xlink="http://www.w3.org/1999/xlink" x="0px" y="0px"
	 viewBox="0 0 360 124.72" style="enable-background:new 0 0 360 124.72;" xml:space="preserve">
<style type="text/css">
	.st0{fill:none;}
	.st1{fill:#FFFFFF;}
</style>
<g id="Logo_Viveris">
	<g id="Zone_de_sécurité">
		<rect y="0" class="st0" width="360" height="124.73"/>
	</g>
	<path id="S" class="st1" d="M293.59,74.64c0,0,1.59,1.02,1.83,1.14c0.32,0.16,6.14,4.44,11.48,4.44c3.23,0,5.58-2.02,5.58-4.85
		c0-3.39-2.83-5.98-8.32-8.16c-6.95-2.75-15.68-8.16-15.68-17.86c0-8,6.22-16.08,18.67-16.08c8.41,0,14.87,4.28,17.3,6.06
		c0.65,0.47,1.49,1.06,1.49,1.06l-6.51,9.84c0,0-1.03-0.78-1.36-1.04c-0.73-0.4-6.63-4.85-11.56-4.85c-2.91,0-5.09,1.94-5.09,4.12
		c0,2.99,2.43,5.25,8.81,7.84c6.3,2.5,16.32,7.43,16.32,18.43c0,8.32-7.19,16.73-19.07,16.73c-10.51,0-16.32-4.36-18.18-6.22
		c-0.57-0.57-1.07-1.08-1.07-1.08L293.59,74.64z"/>
	<path id="I_1_" class="st1" d="M275.39,90.65h-12.77V56.57h12.77V90.65z M275.39,34.04h-12.77v11.88h12.77V34.04z"/>
	<path id="R" class="st1" d="M237.22,67.78c7.03-2.83,11.96-8.81,11.96-16.24c0-9.62-6.9-17.46-17.62-17.46h-22.41v11.59h21.36
		c4.2,0,6.14,2.72,6.14,6.11c0,3.39-2.06,6.62-6.14,6.62H218.6l17.36,32.25l13.6,0L237.22,67.78z"/>
	<path id="E" class="st1" d="M198.66,90.65H162.1V79.06h36.56V90.65z M185.86,56.57H162.1v11.59h23.76V56.57z M198.66,34.08H162.1
		v11.59h36.56V34.08z"/>
	<polygon id="V_1_" class="st1" points="151.57,56.57 144.61,41.68 134.08,64.18 119.96,34.08 105.91,34.08 132.51,91.46 
		135.24,91.46 	"/>
	<path id="I" class="st1" d="M96.12,90.65H83.35V56.57h12.77V90.65z M96.12,34.04H83.35v11.88h12.77V34.04z"/>
	<polygon id="V" class="st1" points="72.78,56.57 65.82,41.68 55.29,64.18 41.17,34.08 27.12,34.08 53.72,91.46 56.45,91.46 	"/>
</g>
</svg>
